<mxfile host="app.diagrams.net" modified="2024-04-11T02:18:14.012Z" agent="Mozilla/5.0 (Windows NT 10.0; Win64; x64) AppleWebKit/537.36 (KHTML, like Gecko) Chrome/123.0.0.0 Safari/537.36 Edg/123.0.0.0" etag="MrJly4Ew4j8X94sD8f10" version="24.2.3" type="github">
  <diagram name="Page-1" id="e7e014a7-5840-1c2e-5031-d8a46d1fe8dd">
    <mxGraphModel dx="699" dy="657" grid="1" gridSize="10" guides="1" tooltips="1" connect="1" arrows="1" fold="1" page="1" pageScale="1" pageWidth="1169" pageHeight="826" background="none" math="0" shadow="0">
      <root>
        <mxCell id="0" />
        <mxCell id="1" parent="0" />
        <mxCell id="2" value="客户" style="swimlane;whiteSpace=wrap;startSize=42;spacing=2;fontSize=14;" parent="1" vertex="1">
          <mxGeometry x="164.5" y="128" width="280" height="570" as="geometry" />
        </mxCell>
        <mxCell id="DW6XkfHsGZ68w6ceXy3D-42" value="" style="ellipse;html=1;shape=startState;fillColor=#dae8fc;strokeColor=#6c8ebf;" vertex="1" parent="2">
          <mxGeometry x="125" y="62" width="30" height="30" as="geometry" />
        </mxCell>
        <mxCell id="DW6XkfHsGZ68w6ceXy3D-43" value="" style="edgeStyle=orthogonalEdgeStyle;html=1;verticalAlign=bottom;endArrow=open;endSize=8;strokeColor=#6c8ebf;rounded=0;fillColor=#dae8fc;" edge="1" source="DW6XkfHsGZ68w6ceXy3D-42" parent="2">
          <mxGeometry relative="1" as="geometry">
            <mxPoint x="140" y="152" as="targetPoint" />
          </mxGeometry>
        </mxCell>
      </root>
    </mxGraphModel>
  </diagram>
</mxfile>
